<?xml version="1.0" encoding="UTF-8"?>
<svg version="1.1" viewBox="0 0 2048 2048" width="1280" height="1280" xmlns="http://www.w3.org/2000/svg">
<path transform="translate(524)" d="m0 0h37l23 5 21 7 16 8 11 7 13 10 10 9 12 13 9 13 9 16 7 16 7 23 31 1h425l14 2 12 5 11 7 8 8 5 7v2l398 1 15 2 12 5 10 7 7 6 9 13 4 8 3 13 1 74h57l19 1 11 3 12 6 11 9 9 12 5 10 3 11v1655l-3 12-8 15-10 11-14 9-13 5-4 1h-1271l-16-6-11-7-9-8-7-10-6-13-2-8-1-76-77-1-13-4-11-6-12-11-9-14-5-15-1-13v-777l-11-9-7-7-7-11-5-12-2-18v-835l2-13 5-12 5-8 9-10 7-6 14-7 14-3 75-1 6-21 7-16 9-17 8-11 9-11 12-12 17-13 17-10 17-7 20-6zm7 60-18 4-15 6-14 9-12 11-8 9-7 11-6 12-4 13-2 12v11h67l6-16 5-6 11-6 5-1 97-1-1-6-9-17-11-14-8-8-14-10-17-8-15-4-7-1z" fill="#F7F7F7"/>
<path transform="translate(524)" d="m0 0h37l23 5 21 7 16 8 11 7 13 10 10 9 12 13 9 13 9 16 7 16 7 23 31 1h425l14 2 12 5 11 7 8 8 5 7v2l398 1 15 2 12 5 10 7 7 6 9 13 4 8 3 13 1 74h57l19 1 11 3 12 6 11 9 9 12 5 10 3 11v1655l-3 12-8 15-10 11-14 9-13 5-4 1h-1271l-16-6-11-7-9-8-7-10-6-13-2-8-1-76-77-1-13-4-11-6-12-11-9-14-5-15-1-13v-777l-11-9-7-7-7-11-5-12-2-18v-835l2-13 5-12 5-8 9-10 7-6 14-7 14-3 75-1 6-21 7-16 9-17 8-11 9-11 12-12 17-13 17-10 17-7 20-6zm7 60-18 4-15 6-14 9-12 11-8 9-7 11-6 12-4 13-2 12v11h67l6-16 5-6 11-6 5-1 97-1-1-6-9-17-11-14-8-8-14-10-17-8-15-4-7-1zm684 160-1 1-1 809-3 15-8 15-9 10-14 9-14 5-8 1-784 1h-24l-1 2v769l1 2 33 1h929l4-1 1-236 4-13 7-13 10-11 11-7 11-5 13-2 231-1 1-1063 3-10 4-6 8-7 9-3h11l9 3 9 8 4 8 1 4v1080l-4 19-7 16-9 13-11 12-250 250-12 9-15 8-17 5-7 1-852 1-1 1v67l1 1h1016l237-1v-1638l-3-1h-64l-1 1-1 40-3 8-8 9-7 4-11 2-12-3-9-6-6-9-2-9-1-164-1-1z" fill="#010000"/>
<path transform="translate(512,156)" d="m0 0h1l3 14 6 9 10 6 8 2 346 1h247l21 1v835l-4 2h-832l-1-1-1-122v-648l1-66 1-1h65l2 2 1 296 2 20 5 21 6 16 10 19 10 14 9 10 5 6 8 7 15 11 16 9 15 7 16 5 22 4h37l25-5 24-9 18-10 12-9 10-9 12-12 12-16 10-18 6-15 5-17 3-17 1-26v-130l-3-17-5-13-8-15-9-11-7-7-10-7-15-8-16-5-8-1h-25l-14 3-13 5-11 6-13 10-10 11-7 11-6 12-4 13-2 16v72l2 9 5 8 6 5 9 4 9 1 10-3 9-6 4-5 3-8 1-7 1-72 4-10 9-10 8-5 7-2h12l10 4 8 6 5 6 4 8 2 10v131l-3 21-5 15-8 15-10 13-10 10-15 10-16 7-15 4-5 1h-25l-17-4-15-6-16-10-8-7-7-8-10-14-7-15-5-19-1-10v-305l1-21h67z" fill="#FDDA79"/>
<path transform="translate(1664,348)" d="m0 0h66l1 1v1638l-237 1h-1016l-1-1v-67l1-1 852-1 15-3 13-5 11-6 9-7 10-9 251-251 10-14 7-14 4-13 2-11v-1080l-4-10-7-8-8-4-15-2v-1l5-1-1-2 1-4 1-59 6-1v-2l8-3 9-8 4-7 1-4 1-40z" fill="#D0F6A0"/>
<path transform="translate(739,1346)" d="m0 0h657l51 1 10 4 7 6 6 12 1 11-3 10-7 9-10 6-3 1-46 1h-665l-12-2-10-6-6-8-3-7v-14l3-8 9-10 10-5z" fill="#010000"/>
<path transform="translate(939,1185)" d="m0 0h340l163 1 10 2 9 6 6 7 3 7 1 12-3 10-9 10-6 4-6 2-197 1h-366l-154-1-10-4-8-7-5-8-1-4v-14l6-12 7-6 8-4 5-1z" fill="#010000"/>
<path transform="translate(362,1095)" d="m0 0h38l14 1 1 10v743l-2 6-4 2h-35l-5-1-10-3-3-6-2-5 1-52v-115l-1-408 1-99v-45l1-8-1-4v-8h2v-5z" fill="#E0DAD2"/>
<path transform="translate(699,737)" d="m0 0h139l162 1 10 5 8 9 4 11v9l-3 9-7 9-7 5-6 2-213 1h-98l-214-1-9-3-8-6-6-9-2-7v-10l3-9 9-10 10-5z" fill="#010000"/>
<path transform="translate(807,1506)" d="m0 0h315l67 1 11 4 8 7 5 10 1 3v11l-4 11-5 6-10 6-2 1-9 1h-453l-11-4-8-7-5-9-1-3v-14l4-9 7-8 9-5 4-1z" fill="#010000"/>
<path transform="translate(1375,1631)" d="m0 0h185l-2 4-10 9-3 4h-2l-2 4-160 160-5 4h-2v-184z" fill="#F7F7F7"/>
<path transform="translate(828,577)" d="m0 0h166l9 2 9 5 6 8 4 10v9l-4 11-7 8-7 5-9 2h-99l-72-1-8-3-8-7-4-6-2-6v-14l4-9 7-8 10-5z" fill="#010000"/>
<path transform="translate(825,417)" d="m0 0h172l9 3 8 6 6 9 2 6v11l-5 12-7 7-10 5-17 1-159-1-12-6-7-9-3-7v-14l4-10 6-7 9-5z" fill="#010000"/>
<path transform="translate(507,1507)" d="m0 0h72l10 3 9 7 6 12 1 4v8l-4 11-7 8-8 5-11 2h-64l-11-2-8-5-7-8-4-11v-8l3-10 7-9 8-5z" fill="#010000"/>
<path transform="translate(512,1186)" d="m0 0h53l18 1 10 5 8 9 4 11v8l-3 10-7 9-8 5-7 2h-73l-10-3-8-6-6-9-2-8v-7l3-10 4-6 8-7 7-3z" fill="#010000"/>
<path transform="translate(1374,577)" d="m0 0h69l9 2 8 5 7 8 3 7 1 9-2 10-6 9-7 6-7 3-16 1h-55l-13-2-10-7-6-9-2-7v-10l4-11 7-8 10-5z" fill="#010000"/>
<path transform="translate(1371,417)" d="m0 0h74l10 3 8 6 6 10 2 12-3 12-6 8-8 6-6 2h-78l-10-4-8-8-4-8-1-4v-11l4-10 7-8 6-4z" fill="#010000"/>
<path transform="translate(1371,898)" d="m0 0h75l11 4 6 5 6 10 2 11-2 10-5 9-7 6-9 4h-78l-10-4-8-8-4-8-1-4v-11l4-10 7-8 8-5z" fill="#010000"/>
<path transform="translate(505,1347)" d="m0 0h75l9 3 8 6 6 9 2 8v7l-3 10-6 8-9 6-6 2h-76l-10-4-8-7-5-10-1-11 2-9 6-9 6-5 6-3z" fill="#010000"/>
<path transform="translate(1369,738)" d="m0 0h79l9 4 7 6 5 9 2 11-2 10-5 8-5 5-6 4-7 2h-74l-9-3-8-6-6-9-2-6v-11l3-8 4-6 9-8z" fill="#010000"/>
<path transform="translate(349,1086)" d="m0 0h804v1l-793 1-10-1 1 123 1 31v319l-1 164v115l-1 19h5v1h-6l-1-2v-769z" fill="#E0DAD2"/>
<path transform="translate(478,1983)" d="m0 0 2 3h1240v1l-226 1h-1016l-1-4z" fill="#E0DAD2"/>
<path transform="translate(316,255)" d="m0 0h1l1 25 1 390v45l-1 245h-1l-1-57z" fill="#E0DAD2"/>
<path transform="translate(765,1504)" d="m0 0h357l49 1 17 1v1h-457v-1l11-1z" fill="#E0DAD2"/>
<path transform="translate(1648,1625)" d="m0 0 2 1-9 12-261 261-9 6-1-2 8-6 10-9 251-251z" fill="#DFDAD1"/>
<path transform="translate(1365,635)" d="m0 0 13 1h71v1l-5 1-50 1-22-1-7-2z" fill="#E0DAD2"/>
<path transform="translate(1664,348)" d="m0 0h59v1l-57 1-1 3v29l-1 5h-1v-38z" fill="#E0DAD2"/>
<path transform="translate(1648,1625)" d="m0 0 2 1-9 12-2-1z" fill="#DDDECA"/>
</svg>
