<?xml version="1.0" encoding="UTF-8"?>
<svg version="1.1" viewBox="0 0 2048 690" width="1280" height="1280" xmlns="http://www.w3.org/2000/svg">
<path transform="translate(133,30)" d="m0 0h15l13 4 10 7 5 5 6 8 7 14 141 1 6 3 4 4 31 1 91 1 7 2 5 4 4 7 1 7v19h23l7 3 5 5 3 5v504l-4 7-5 5-3 1-21 1h-367l-6-3-7-7-2-4-1-25h-19l-9-2-5-4-5-8-1-239-8-11-1-3v-258l6-10 7-5 6-1 21-1 5-13 7-10 11-8 8-4zm2 18-11 4-7 6-6 12-1 6 11 1h9l6-7 32-1-2-6-5-7-9-6-8-2z" fill="#FCFCFC"/>
<path transform="translate(133,30)" d="m0 0h15l13 4 10 7 5 5 6 8 7 14 141 1 6 3 4 4 31 1 91 1 7 2 5 4 4 7 1 7v19h23l7 3 5 5 3 5v504l-4 7-5 5-3 1-21 1h-367l-6-3-7-7-2-4-1-25h-19l-9-2-5-4-5-8-1-239-8-11-1-3v-258l6-10 7-5 6-1 21-1 5-13 7-10 11-8 8-4zm2 18-11 4-7 6-6 12-1 6 11 1h9l6-7 32-1-2-6-5-7-9-6-8-2zm208 48-1 1-1 247-4 8-7 4-22 1h-226v234h291l2-74 4-7 6-4 3-1 70-1 2-1 1-319 2-5 5-3 6 1 2 2 1 4v328l-4 8-11 12-69 69-11 7-262 1-1 8v13l1 1h317l61-1 1-1v-493h-22v13l-1 3-4 2h-6l-4-3-1-3-1-50-2-1z" fill="#010001"/>
<path transform="translate(111,76)" d="m0 0h20l3 8 2 1 36 1 152 1 1 2-1 250h-251l-1-12v-229l1-12 19 1 1 85 2 15 6 14 9 10 10 6 11 3h20l12-4 11-8 7-10 5-12 1-7v-47l-3-10-8-9-9-4h-16l-8 4-7 8-4 11v24l3 6 9 1 4-4 1-21 2-8 4-4h7l6 4 2 4v45l-5 12-6 7-12 6h-15l-8-4-8-7-4-8-1-3-1-11z" fill="#FED47F"/>
<path transform="translate(630,180)" d="m0 0h78l25 3 17 5 13 5 10 6 11 9 10 11 9 16 5 13 4 17 2 18v29l-2 18-6 24-7 15-9 14-9 10-12 9-15 8-15 5-19 4-22 2h-63l-14-2-9-4-8-9-4-10-1-9v-174l2-12 4-8 5-6 10-5zm41 45-9 2-5 5-2 9v119l3 10 5 4 6 2h20l25-5 16-8 10-9 7-10 4-11 4-18v-34l-4-17-5-12-7-9-7-6-12-6-15-4-21-2z" fill="#FDFDFD"/>
<path transform="translate(1292,177)" d="m0 0h40l16 4 9 4 10 6 8 7 4 7 1 4v18l-2 11-2 2h-22l-12-4-12-10-7-3-14-1-11 2-10 6-5 10-1 10 3 7 1 3 4 2 10 6 27 11 15 6 17 8 11 8 8 8 7 12 4 18v19l-4 19-7 13-7 9-10 9-12 7-17 6-9 2-10 1h-35l-14-2-17-6-11-7-11-11-3-8-1-7v-16l3-4 10-3 8-1h13l16 13 10 5 9 1h14l12-2 6-4 5-6 1-4v-15l-4-7-9-7-15-7-24-9-18-8-11-7-10-9-7-10-5-12-2-11v-24l2-10 5-12 8-11 8-8 11-7 13-6 16-4z" fill="#FDFDFD"/>
<path transform="translate(1436,245)" d="m0 0 9 1 10 8 8 7 6 10 3 28 8 27 9 20 10 16 7 9 2-3 11-33 6-27 3-15 2-24 4-6 10-10 11-8h6l9 6 12 11 5 8v12l-4 22-6 25-5 17-11 30-12 26-11 21-10 16-14 19-13 14-14 11-14 8-14 6-12 3-11 1h-12l-7-3-5-5-7-9-3-6 1-6 6-8 7-7 4-3 18-1 16-6 10-8 7-8 7-11-6-7-11-13-12-17-11-19-13-27-11-33-3-18v-18l9-10 11-10z" fill="#FDFDFD"/>
<path transform="translate(477,135)" d="m0 0h22v493l-1 1-61 1h-317l-1-1v-13l1-8 262-1 11-7 77-77 6-9 1-3v-328l-2-5-4-2v-2h-2l-1-3v-13l1-3h3v-2l4-2 1-3z" fill="#D7F9A5"/>
<path transform="translate(925,244)" d="m0 0h18l17 2 15 4 14 7 12 9 9 9 8 13 5 14 3 16v28l-3 18-4 12-8 15-9 10-9 8-15 8-15 5-14 2h-35l-16-3-13-5-11-6-10-9-10-11-8-16-5-19-1-7v-26l3-15 6-18 7-11 9-10 9-8 17-9 13-4zm4 42-10 2-11 7-7 10-3 9-1 8v26l2 13 5 9 4 5 9 5 8 3 10 1 11-2 12-6 6-8 5-12 1-7v-32l-3-11-6-10-6-5-9-4z" fill="#FDFDFD"/>
<path transform="translate(1641,242)" d="m0 0 5 1 10 8 13 13 7-7 11-7 11-4 13-2h13l15 2 13 5 10 7 8 8 7 12 4 11 2 16v111l-3 4-5 1h-42l-3-3-1-2-1-97-3-14-4-8-5-4-7-3-11-1-11 2-7 4-7 8-1 2-1 106-2 7-6 3h-41l-5-3-2-4v-145l3-5 9-10 8-8z" fill="#FCFCFC"/>
<path transform="translate(1905,244)" d="m0 0h17l17 2 12 5 7 6 5 10 2 9-1 6-5 5-12 6-9 1-14-6-7-1h-8l-9 2-11 6-9 10-4 8-2 9v24l4 13 6 9 7 7 14 6 10 2 14-1 18-6h7l3 4 10 23 3 6-1 3-10 5-17 5-14 2h-37l-16-3-15-6-14-9-13-13-8-14-4-10-4-19-1-10v-9l3-20 5-16 8-15 10-12 10-8 17-9 13-4 11-2z" fill="#FDFDFD"/>
<path transform="translate(1139,244)" d="m0 0h17l17 2 11 4 7 5 5 8 2 6v14l-6 5-11 5-9 1-13-6-15-1-9 2-10 5-7 6-6 10-4 11v25l5 14 6 9 7 6 8 4 8 3h21l23-7 4 2 8 18 6 13-1 4-4 3-22 7-15 2h-36l-16-3-16-6-14-9-7-6-8-10-7-14-4-12-3-18v-21l4-21 7-17 10-14 9-9 10-7 15-7 15-4z" fill="#FDFDFD"/>
<path transform="translate(195,387)" d="m0 0h218l4 2 3 6-1 7-3 3-3 1h-217l-5-3-2-4 1-7z" fill="#010001"/>
<path transform="translate(195,436)" d="m0 0h220l4 4 1 8-2 4-4 2-162 1h-52l-6-2-5-5v-7z" fill="#010001"/>
<path transform="translate(91,360)" d="m0 0 9 1 1 13v209l-1 5-4 1-9-1-2-2-1-8v-66l1-118 1-29 2-4z" fill="#EBE0D8"/>
<path transform="translate(117,253)" d="m0 0h161l5 3 3 4-1 6-4 4-28 1h-45l-92-1-4-4v-8z" fill="#010001"/>
<path transform="translate(144,86)" d="m0 0h28l152 1 1 2-1 250h-251l-1-21 1-7h1l1 14 3 9 2 1 11 1 74 1h62l67-1 14-1 6-3 3-4 1-4v-139l-1-50h-1l-1-13v-14l-1-6-3-1-4-4-14-3-19-1-4-2-9-1-68-1-55-1v-1z" fill="#FEE990"/>
<path transform="translate(198,484)" d="m0 0h127l14 1 3 3v8l-3 5-4 1h-138l-5-3-3-5 1-6 2-3z" fill="#010001"/>
<path transform="translate(391,522)" d="m0 0h55l-3 5-49 49-3 1z" fill="#FCFCFC"/>
<path transform="translate(230,155)" d="m0 0 48 1 5 2 3 6-2 6-4 3-3 1h-49l-7-2-3-4v-7l4-5z" fill="#010001"/>
<path transform="translate(224,204)" d="m0 0h51l7 2 3 3 1 5-4 6-4 2h-51l-7-2-2-3v-8l4-4z" fill="#010001"/>
<path transform="translate(111,78)" d="m0 0 2 1v37l1 57 5 12 5 7 4 1 8 4h9l9-3 5-3 3-3 4-10 1-16-2-18-3-6-5-1-3 2-2 19-3 5-5 2v-2l4-4 1-21 2-8 4-4h7l6 4 2 4v45l-5 12-6 7-12 6h-15l-8-4-8-7-4-8-1-3-1-11z" fill="#FEEA93"/>
<path transform="translate(86,88)" d="m0 0h6l1 84 2 15 6 14 9 10 10 6 11 3h20l12-4 11-8 7-10 5-12 2-10h1l2 10 1 1-1 9-5 10-7 7-9 5-14 4-5 2-17 2-4-1-23-9-3-3-4-7-6-12-3-11-1-8v-86z" fill="#FEE892"/>
<path transform="translate(129,387)" d="m0 0h22l6 4 3 5-1 4-5 5-3 1h-23l-5-4-1-2v-7l5-5z" fill="#010001"/>
<path transform="translate(127,436)" d="m0 0h26l6 5 1 6-5 5-4 2h-23l-4-2-2-4v-7z" fill="#010001"/>
<path transform="translate(389,301)" d="m0 0h25l5 4 1 2v6l-5 5-3 1h-20l-6-2-3-3v-8l4-4z" fill="#010001"/>
<path transform="translate(391,204)" d="m0 0h20l6 2 3 5-1 7-3 3-4 1h-21l-6-2-3-6 2-7z" fill="#010001"/>
<path transform="translate(130,484)" d="m0 0h19l7 2 3 3 1 4-3 5-4 3-4 1h-19l-6-3-2-4v-6l3-4z" fill="#010001"/>
<path transform="translate(389,253)" d="m0 0h26l4 4 1 2v6l-3 4-3 1h-26l-5-4-1-5 3-6z" fill="#010001"/>
<path transform="translate(250,151)" d="m0 0 17 1 14 3 5 4 2 5-1 6-5 4-12 3-2-1 1 3-10 2-30-1-5-2-6-5-2-5v-7l3-3v10l4 4 5 1h49l6-3 2-6-3-6-4-1-57-1 2-2 11-2z" fill="#FEE88F"/>
<path transform="translate(388,156)" d="m0 0h27l4 4 1 7-2 4-4 2h-26l-5-4v-9z" fill="#010001"/>
<path transform="translate(73,311)" d="m0 0h1l1 14 3 9 2 1 11 1 74 1h129v1l-42 1h-179l-1-21z" fill="#FEEA8F"/>
<path transform="translate(235,200)" d="m0 0h19l19 1 11 4 4 7-1 6-6 5-18 3-4 1-18-1-13-1-8-3-3-3 1-3 2 4 7 1h51l5-3 2-6-3-5-7-2h-52l-1-2z" fill="#FEE68E"/>
<path transform="translate(133,250)" d="m0 0h117l26 1 4 2-2 1h-162v-2l2-1z" fill="#FEE391"/>
<path transform="translate(285,257)" d="m0 0 3 4-1 6-4 4h-3v2l-7 2-6-1h-15l-36-1h-80l-1-2 19-1h99l28-1 3-3z" fill="#FEEFAB"/>
<path transform="translate(155,105)" d="m0 0h9l10 3 10 9 4 7 2 5v19h-1l-3-21-4-8-8-7-7-3h-16l-8 4-7 8-4 11v24l3 6 8 3v1l-9-1-5-4-2-4v-19l2-8 4-9 4-6h2v-2l9-6z" fill="#FEE995"/>
<path transform="translate(188,176)" d="m0 0h1l2 10 1 1-1 9-5 10-7 7-9 5-9 3h-5l2-3 10-5 6-5 7-10 5-12z" fill="#FEEA94"/>
<path transform="translate(73,86)" d="m0 0 6 2-3 2-1 7-1 128-2-3v-124z" fill="#FEEA8F"/>
<path transform="translate(250,151)" d="m0 0 17 1 14 3 5 4 2 5-1 6-5 4h-2v-2l4-4 1-4-3-6-4-1-57-1 2-2 11-2z" fill="#FEEA9B"/>
<path transform="translate(73,311)" d="m0 0h1l1 14 3 9 2 1 11 1 57 1 1 2h-76l-1-21z" fill="#FEEB94"/>
<path transform="translate(86,88)" d="m0 0h6l1 84 2 17-3-1-2-13v-86z" fill="#FEEA91"/>
<path transform="translate(133,250)" d="m0 0h28l2 1 16 1v1l-63 1v-2l2-1z" fill="#FEE189"/>
<path transform="translate(110,259)" d="m0 0 2 3 2 5 2 2 38 1v1h-19v2l-7 1h-10l-6-4-2-3z" fill="#FEE38B"/>
<path transform="translate(165,106)" d="m0 0 9 2 10 9 4 7 2 5v19h-1l-3-21-4-8-8-7-9-4z" fill="#FEE792"/>
<path transform="translate(73,86)" d="m0 0 6 2-3 2-2 23-2 1v-16z" fill="#FDE998"/>
<path transform="translate(155,105)" d="m0 0h9l1 3-15 1 1-3z" fill="#FEECA7"/>
<path transform="translate(285,257)" d="m0 0 3 4-1 6-4 4h-5l5-4 2-4z" fill="#FEE790"/>
<path transform="translate(285,211)" d="m0 0 3 1-1 6-6 5h-2v-2l5-5z" fill="#FEE997"/>
<path transform="translate(188,129)" d="m0 0h2v19h-1l-2-18z" fill="#FEEC97"/>
</svg>
